<?xml version="1.0" encoding="UTF-8"?>
<svg version="1.1" xmlns="http://www.w3.org/2000/svg" width="75" height="117">
<path d="M0 0 C6.96606465 5.9394867 9.62371881 13.26488494 10.4375 22.1875 C10.60407477 26.63771154 10.62530771 31.08605077 10.640625 35.5390625 C10.64632507 36.83008881 10.65202515 38.12111511 10.65789795 39.45126343 C10.66836182 42.17958972 10.67423386 44.90788698 10.67773438 47.63623047 C10.68319504 51.0954583 10.70719003 54.55428779 10.73570633 58.01339149 C10.75906233 61.35527221 10.76079757 64.69710463 10.765625 68.0390625 C10.7779718 69.26243317 10.7903186 70.48580383 10.80303955 71.74624634 C10.77702573 81.95440201 10.24196091 93.45235424 3.28125 101.5390625 C-5.16462666 109.09024883 -17.12155169 110.69959442 -28.1171875 110.375 C-38.44251511 109.58328159 -47.15883442 108.60868093 -55.3125 101.9375 C-65.84714763 89.06181957 -63.88028074 71.38970419 -63.82324219 55.70410156 C-63.81252532 52.1957877 -63.82318005 48.68798578 -63.8359375 45.1796875 C-63.85969198 11.11016558 -63.85969198 11.11016558 -54.375 0.8125 C-39.65042891 -7.69502997 -14.65031687 -10.26060795 0 0 Z M-26.5625 18.1875 C-29.8047758 29.53828351 -29.8047758 29.53828351 -31.5625 41.1875 C-30.9638916 41.00002197 -30.3652832 40.81254395 -29.74853516 40.61938477 C-26.78538306 39.96967136 -24.58100474 39.77264648 -21.5625 40.1875 C-17.42097858 42.93678122 -14.25897154 46.45169851 -10.9375 50.125 C-10.02215979 51.09558463 -9.10420874 52.06371401 -8.18359375 53.02929688 C-5.94971716 55.39250316 -3.74546082 57.77734603 -1.5625 60.1875 C-1.5625 56.53337258 -2.59110919 54.98466377 -4.37890625 51.8125 C-4.97896484 50.74386719 -5.57902344 49.67523438 -6.19726562 48.57421875 C-7.15149414 46.89779297 -7.15149414 46.89779297 -8.125 45.1875 C-8.73408203 44.10082031 -9.34316406 43.01414062 -9.97070312 41.89453125 C-16.60193434 28.64285749 -16.60193434 28.64285749 -26.5625 18.1875 Z M-35.5625 29.1875 C-37.73273916 32.97288159 -39.90144474 36.75913665 -42.06884766 40.54614258 C-42.80347207 41.82925021 -43.53848581 43.11213503 -44.27392578 44.39477539 C-46.38502982 48.07696709 -48.48761716 51.76378814 -50.57922363 55.45709229 C-51.52125437 57.11491434 -52.47281742 58.76730887 -53.42480469 60.41943359 C-53.97297852 61.3883252 -54.52115234 62.3572168 -55.0859375 63.35546875 C-55.56724121 64.19746826 -56.04854492 65.03946777 -56.54443359 65.90698242 C-57.83426238 68.38002032 -57.83426238 68.38002032 -57.5625 72.1875 C-55.04128568 71.56400642 -52.52053069 70.93874639 -50 70.3125 C-49.29552734 70.13847656 -48.59105469 69.96445313 -47.86523438 69.78515625 C-43.40225002 68.67455185 -38.97762948 67.47548784 -34.5625 66.1875 C-35.01302734 65.78950195 -35.46355469 65.39150391 -35.92773438 64.98144531 C-40.47297171 60.46959108 -40.47297171 60.46959108 -40.71484375 57.00585938 C-40.31900903 54.58293424 -39.74623019 52.29532891 -39.0625 49.9375 C-38.63959835 48.25937297 -38.21771868 46.58098806 -37.796875 44.90234375 C-37.58224609 44.09651855 -37.36761719 43.29069336 -37.14648438 42.46044922 C-36.38510869 39.49706809 -35.82996054 36.51459964 -35.3125 33.5 C-35.16296875 32.65050781 -35.0134375 31.80101562 -34.859375 30.92578125 C-34.76140625 30.35214844 -34.6634375 29.77851562 -34.5625 29.1875 C-34.8925 29.1875 -35.2225 29.1875 -35.5625 29.1875 Z M-33.5625 47.1875 C-35.07487739 49.97433477 -35.07487739 49.97433477 -35.5625 53.1875 C-35.748125 54.0125 -35.93375 54.8375 -36.125 55.6875 C-35.32094839 59.26106272 -33.55293512 60.95989303 -30.70703125 63.19140625 C-28.01317484 64.44265103 -26.67945897 64.33352832 -23.8125 63.625 C-20.97219397 62.43468436 -19.83101072 61.67031107 -18.32421875 58.9609375 C-17.56983627 56.70851587 -16.98844398 54.52284804 -16.5625 52.1875 C-17.34625 51.40375 -18.13 50.62 -18.9375 49.8125 C-20.47916667 48.27083333 -22.02083333 46.72916667 -23.5625 45.1875 C-27.59018404 45.1875 -29.95047823 45.46001133 -33.5625 47.1875 Z M-13.5625 56.1875 C-13.8925 59.1575 -14.2225 62.1275 -14.5625 65.1875 C-16.05136719 65.55101563 -16.05136719 65.55101563 -17.5703125 65.921875 C-26.62963744 68.15082772 -35.6098188 70.5576499 -44.5625 73.1875 C-44.5625 73.5175 -44.5625 73.8475 -44.5625 74.1875 C-38.08466941 74.23820326 -31.60688999 74.27323492 -25.12890625 74.29736328 C-22.92511075 74.30742183 -20.7213286 74.32107026 -18.51757812 74.33837891 C-15.35022691 74.3626334 -12.18305213 74.3739846 -9.015625 74.3828125 C-8.03007629 74.39313507 -7.04452759 74.40345764 -6.02911377 74.41409302 C-5.1084613 74.41424408 -4.18780884 74.41439514 -3.23925781 74.41455078 C-2.4309552 74.418992 -1.62265259 74.42343323 -0.78985596 74.42800903 C1.67606351 74.16174 3.30292578 73.41973044 5.4375 72.1875 C4.62925781 71.45144531 3.82101563 70.71539062 2.98828125 69.95703125 C1.90879779 68.97141591 0.82937388 67.98573535 -0.25 67 C-0.78044922 66.51724609 -1.31089844 66.03449219 -1.85742188 65.53710938 C-4.42658849 63.18860738 -6.909531 60.82872183 -9.33203125 58.32421875 C-11.28841004 55.95691066 -11.28841004 55.95691066 -13.5625 56.1875 Z " fill="#40B6E6" transform="translate(64.5625,5.8125)"/>
</svg>
